<svg width="122" height="122" viewBox="0 0 122 122" fill="none" xmlns="http://www.w3.org/2000/svg">
<path d="M61.2285 60.9911V1" stroke="#222222" stroke-width="1.5" stroke-linecap="round"/>
<path d="M61.2285 60.9911V1" stroke="#222222" stroke-width="1.5" stroke-miterlimit="10" stroke-linecap="round"/>
<path d="M61.2285 60.9925L82.0603 4.62622" stroke="#222222" stroke-width="1.5" stroke-linecap="round"/>
<path d="M61.2285 60.9925L82.0603 4.62622" stroke="#222222" stroke-width="1.5" stroke-miterlimit="10" stroke-linecap="round"/>
<path d="M61.2285 60.9917L100.38 15.0361" stroke="#222222" stroke-width="1.5" stroke-linecap="round"/>
<path d="M61.2285 60.9917L100.38 15.0361" stroke="#222222" stroke-width="1.5" stroke-miterlimit="10" stroke-linecap="round"/>
<path d="M61.2285 60.9903L113.988 30.9946" stroke="#222222" stroke-width="1.5" stroke-linecap="round"/>
<path d="M61.2285 60.9903L113.988 30.9946" stroke="#222222" stroke-width="1.5" stroke-miterlimit="10" stroke-linecap="round"/>
<path d="M61.2285 60.9911L121.229 50.5801" stroke="#222222" stroke-width="1.5" stroke-linecap="round"/>
<path d="M61.2285 60.9911L121.229 50.5801" stroke="#222222" stroke-width="1.5" stroke-miterlimit="10" stroke-linecap="round"/>
<path d="M61.2285 60.9915L121.229 71.4196" stroke="#222222" stroke-width="1.5" stroke-linecap="round"/>
<path d="M61.2285 60.9915L121.229 71.4196" stroke="#222222" stroke-width="1.5" stroke-miterlimit="10" stroke-linecap="round"/>
<path d="M61.2285 60.9915L113.988 91.0044" stroke="#222222" stroke-width="1.5" stroke-linecap="round"/>
<path d="M61.2285 60.9915L113.988 91.0044" stroke="#222222" stroke-width="1.5" stroke-miterlimit="10" stroke-linecap="round"/>
<path d="M61.2285 60.9915L100.38 106.964" stroke="#222222" stroke-width="1.5" stroke-linecap="round"/>
<path d="M61.2285 60.9915L100.38 106.964" stroke="#222222" stroke-width="1.5" stroke-miterlimit="10" stroke-linecap="round"/>
<path d="M61.2285 60.9915L82.0603 117.375" stroke="#222222" stroke-width="1.5" stroke-linecap="round"/>
<path d="M61.2285 60.9915L82.0603 117.375" stroke="#222222" stroke-width="1.5" stroke-miterlimit="10" stroke-linecap="round"/>
<path d="M61.2285 60.9915V121" stroke="#222222" stroke-width="1.5" stroke-linecap="round"/>
<path d="M61.2285 60.9915V121" stroke="#222222" stroke-width="1.5" stroke-miterlimit="10" stroke-linecap="round"/>
<path d="M61.2223 60.9917L40.373 117.375" stroke="#222222" stroke-width="1.5" stroke-linecap="round"/>
<path d="M61.2223 60.9917L40.373 117.375" stroke="#222222" stroke-width="1.5" stroke-miterlimit="10" stroke-linecap="round"/>
<path d="M61.233 60.9917L22.0645 106.964" stroke="#222222" stroke-width="1.5" stroke-linecap="round"/>
<path d="M61.233 60.9917L22.0645 106.964" stroke="#222222" stroke-width="1.5" stroke-miterlimit="10" stroke-linecap="round"/>
<path d="M61.2303 60.9917L8.45312 91.0046" stroke="#222222" stroke-width="1.5" stroke-linecap="round"/>
<path d="M61.2303 60.9917L8.45312 91.0046" stroke="#222222" stroke-width="1.5" stroke-miterlimit="10" stroke-linecap="round"/>
<path d="M61.2288 60.9915L1.22852 71.4196" stroke="#222222" stroke-width="1.5" stroke-linecap="round"/>
<path d="M61.2288 60.9915L1.22852 71.4196" stroke="#222222" stroke-width="1.5" stroke-miterlimit="10" stroke-linecap="round"/>
<path d="M61.2288 60.991L1.22852 50.58" stroke="#222222" stroke-width="1.5" stroke-linecap="round"/>
<path d="M61.2288 60.991L1.22852 50.58" stroke="#222222" stroke-width="1.5" stroke-miterlimit="10" stroke-linecap="round"/>
<path d="M61.2303 60.9903L8.45312 30.9946" stroke="#222222" stroke-width="1.5" stroke-linecap="round"/>
<path d="M61.2303 60.9903L8.45312 30.9946" stroke="#222222" stroke-width="1.5" stroke-miterlimit="10" stroke-linecap="round"/>
<path d="M61.233 60.9917L22.0645 15.0361" stroke="#222222" stroke-width="1.5" stroke-linecap="round"/>
<path d="M61.233 60.9917L22.0645 15.0361" stroke="#222222" stroke-width="1.5" stroke-miterlimit="10" stroke-linecap="round"/>
<path d="M61.2223 60.9914L40.373 4.625" stroke="#222222" stroke-width="1.5" stroke-linecap="round"/>
<path d="M61.2223 60.9914L40.373 4.625" stroke="#222222" stroke-width="1.5" stroke-miterlimit="10" stroke-linecap="round"/>
<path d="M61.2285 60.9911V1" stroke="#222222" stroke-width="1.5" stroke-linecap="round"/>
<path d="M61.2285 60.9911V1" stroke="#222222" stroke-width="1.5" stroke-miterlimit="10" stroke-linecap="round"/>
</svg>
