<svg width="1072" height="114" viewBox="0 0 1072 114" fill="none" xmlns="http://www.w3.org/2000/svg">
<path d="M2.05727 11.0445C1.22884 11.0456 0.558768 11.7181 0.56062 12.5465C0.562472 13.375 1.23554 14.0456 2.06397 14.0445L2.05727 11.0445ZM295.771 13.2118C296.355 12.6252 296.353 11.6755 295.766 11.0905L286.199 1.55734C285.612 0.972341 284.662 0.973613 284.078 1.56018C283.493 2.14675 283.495 3.0965 284.082 3.6815L292.587 12.1554L284.12 20.652C283.536 21.2386 283.538 22.1883 284.125 22.7733C284.712 23.3583 285.662 23.3571 286.246 22.7705L295.771 13.2118ZM2.06397 14.0445L294.711 13.6525L294.705 10.6526L2.05727 11.0445L2.06397 14.0445Z" fill="#005BFF"/>
<path d="M352.687 10.7762C351.859 10.7773 351.189 11.4498 351.191 12.2782C351.194 13.1066 351.867 13.7773 352.696 13.7762L352.687 10.7762ZM646.402 12.939C646.986 12.3524 646.984 11.4027 646.396 10.8177L636.824 1.2847C636.237 0.699713 635.287 0.701 634.703 1.28758C634.119 1.87416 634.121 2.8239 634.709 3.40889L643.217 11.8827L634.755 20.3794C634.171 20.966 634.174 21.9157 634.761 22.5007C635.348 23.0857 636.298 23.0844 636.882 22.4978L646.402 12.939ZM352.696 13.7762L645.343 13.3798L645.334 10.3798L352.687 10.7762L352.696 13.7762Z" fill="#005BFF"/>
<path fill-rule="evenodd" clip-rule="evenodd" d="M700.478 10.7378C699.65 10.7377 698.979 11.4093 698.979 12.2377C698.979 13.0661 699.651 13.7377 700.479 13.7378L1048.14 13.7597C1059.33 13.7604 1068.37 22.8744 1068.29 34.0593C1068.21 45.104 1059.25 54.0189 1048.2 54.0434L392.118 55.5004L392.025 55.5006L25.0613 55.1058C11.5499 55.0913 0.612344 66.0928 0.705671 79.6039C0.798014 92.9683 11.657 103.75 25.0218 103.747L288.55 103.682L281.564 110.669C280.978 111.254 280.978 112.204 281.564 112.79C282.149 113.375 283.099 113.375 283.685 112.789L293.232 103.241C293.818 102.655 293.818 101.705 293.233 101.12L283.688 91.5761C283.102 90.9905 282.153 90.9907 281.567 91.5767C280.981 92.1626 280.981 93.1123 281.566 93.698L288.551 100.682L25.0222 100.747C13.3061 100.749 3.78657 91.2978 3.70562 79.5819C3.62379 67.7375 13.2121 58.0931 25.0569 58.1058L391.998 58.5003C392.01 58.5005 392.022 58.5006 392.033 58.5006L392.119 58.5004L392.943 58.5013C392.975 58.5013 393.007 58.5003 393.039 58.4983L1048.21 57.0434C1060.9 57.0152 1071.19 46.7726 1071.29 34.0828C1071.38 21.232 1060.99 10.7605 1048.14 10.7597L700.478 10.7378Z" fill="#005BFF"/>
<path d="M352.687 100.624C351.859 100.625 351.189 101.297 351.191 102.126C351.194 102.954 351.867 103.625 352.696 103.624L352.687 100.624ZM646.402 102.786C646.986 102.2 646.984 101.25 646.396 100.665L636.824 91.1321C636.237 90.5471 635.287 90.5484 634.703 91.135C634.119 91.7216 634.121 92.6713 634.709 93.2563L643.217 101.73L634.755 110.227C634.171 110.813 634.174 111.763 634.761 112.348C635.348 112.933 636.298 112.932 636.882 112.345L646.402 102.786ZM352.696 103.624L645.343 103.227L645.334 100.227L352.687 100.624L352.696 103.624Z" fill="#005BFF"/>
</svg>
